<?xml version="1.0" encoding="UTF-8"?>
<svg width="1441px" height="895px" viewBox="0 0 1441 895" version="1.1" xmlns="http://www.w3.org/2000/svg" xmlns:xlink="http://www.w3.org/1999/xlink">
    <!-- Generator: Sketch 48.2 (47327) - http://www.bohemiancoding.com/sketch -->
    <title>Background</title>
    <desc>Created with Sketch.</desc>
    <defs></defs>
    <g id="Page-1" stroke="none" stroke-width="1" fill="none" fill-rule="evenodd">
        <g id="Background">
            <g stroke-width="1" fill-rule="evenodd">
                <rect id="Blue-Bg" fill="#3367D6" x="1" y="0" width="1440" height="895"></rect>
                <rect id="Left-Dark-Rectangle" fill="#1C3AA9" x="1" y="662" width="956.792288" height="230"></rect>
                <rect id="Top-Left-Dark-Rectangle" fill="#1C3AA9" x="1" y="0" width="685.523942" height="250"></rect>
                <path d="M685,3 L1435.8174,3 C1412.4648,143.677066 1304.98932,250 1175.93338,250 C1171.54138,250 1167.17438,249.876861 1162.83484,249.63342 L1162.83484,250 L685,250 L685,3 Z" id="Top-Right-Dark-Rectangel" fill="#1A3496"></path>
                <path d="M1440,561.434237 L1440,662 L883,662 C891.675331,513.802138 1018.78549,396.211618 1174.31715,396.211618 C1179.16063,396.211618 1183.97654,396.325656 1188.76217,396.551105 L1188.76217,396.211618 L1439.52773,396.211618 L1439.52773,560.437386 C1439.6858,560.769324 1439.84323,561.101611 1440,561.434243 Z" id="Middle-Rounded-Rectangle" fill="#2A56C6"></path>
                <rect id="Right-Small-Rectangel" fill="#3975E4" x="887.792288" y="662" width="271.151593" height="230"></rect>
                <path d="M302.89746,694.80753 L299.160915,765.344198 C299.170337,765.549452 299.175105,765.756045 299.175105,765.963855 C299.175105,771.809304 295.4028,776.692103 290.372923,777.864674 L290.372923,778 C290.258121,777.981373 290.14389,777.960831 290.030259,777.938406 C289.916627,777.960831 289.802397,777.981373 289.687594,778 L289.687594,777.864674 C284.657718,776.692103 280.885413,771.809304 280.885413,765.963855 C280.885413,765.756045 280.890181,765.549452 280.899603,765.344198 L277.163057,694.80753 L240.46037,694.80753 L201,694.80753 C202.628108,674.46529 218.288284,658.507491 237.366617,658.507491 C238.408641,658.507491 239.440469,658.555095 240.46037,658.648419 L240.46037,570.388127 C231.687294,563.11794 226.022855,551.618324 226.022855,538.676113 C226.022855,537.212571 226.09529,535.767476 226.236465,534.344859 L298.821822,534.344859 L353.824053,534.344859 C353.965228,535.767476 354.037663,537.212571 354.037663,538.676113 C354.037663,551.618324 348.373224,563.11794 339.600148,570.388127 L339.600148,658.648419 C340.620049,658.555095 341.651876,658.507491 342.693901,658.507491 C361.772234,658.507491 377.432409,674.46529 379.060518,694.80753 L339.600148,694.80753 L302.89746,694.80753 Z" id="Pin" fill="#526380" style="mix-blend-mode: color-dodge;"></path>
                <path d="M1092.03281,683.463653 L1318,660.5 L1080.10771,762 L1079.67502,698.725943 C1079.23834,697.493719 1079,696.162541 1079,694.773782 C1079,688.431773 1083.97045,683.290558 1090.10181,683.290558 C1090.76044,683.290558 1091.40569,683.349885 1092.03281,683.463653 Z M1079.67502,622.274057 L1080.10771,559 L1318,660.5 L1092.03281,637.536347 C1091.40569,637.650115 1090.76044,637.709442 1090.10181,637.709442 C1083.97045,637.709442 1079,632.568227 1079,626.226218 C1079,624.837459 1079.23834,623.506281 1079.67502,622.274057 Z" id="Paper-Plan" fill="#526380" style="mix-blend-mode: color-dodge;"></path>
                <path d="M248.306527,337.979144 L248.306527,338.577229 L198.403184,338.577229 L198.403184,288.673886 L199.001269,288.673886 L198.833387,288.506004 L340.57944,146.75995 L390.220463,196.400973 L248.47441,338.147027 L248.306527,337.979144 Z M412.743287,173.87815 L402.13814,184.483296 L352.497117,134.842273 L363.102264,124.237127 L372.992371,114.347019 C378.849432,108.489959 388.346058,108.490414 394.201086,114.345441 L422.634972,142.779328 C428.491161,148.635517 428.489677,158.13176 422.633394,163.988042 L412.743287,173.87815 Z" id="Pencil" fill="#526380" style="mix-blend-mode: color-dodge;"></path>
                <path d="M1170.60465,221.971557 L1224.50558,253.091274 L1215.14512,269.304075 L1151.70372,232.676168 L1151.91956,232.302326 L1151.88372,232.302326 L1151.88372,164.744186 L1170.60465,164.744186 L1170.60465,221.971557 Z M1164.5,343 C1096.84512,343 1042,288.154882 1042,220.5 C1042,152.845118 1096.84512,98 1164.5,98 C1232.15488,98 1287,152.845118 1287,220.5 C1287,288.154882 1232.15488,343 1164.5,343 Z M1164.5,318.581395 C1218.66886,318.581395 1262.5814,274.668859 1262.5814,220.5 C1262.5814,166.331141 1218.66886,122.418605 1164.5,122.418605 C1110.33114,122.418605 1066.4186,166.331141 1066.4186,220.5 C1066.4186,274.668859 1110.33114,318.581395 1164.5,318.581395 Z" id="Clock" fill="#526380" style="mix-blend-mode: color-dodge;"></path>
                <rect id="Dark-Overlay" fill-opacity="0.55" fill="#102161" x="0" y="0" width="1441" height="895"></rect>
            </g>
            <g id="mail2" stroke-width="1" fill-rule="evenodd" transform="translate(399.000000, 347.000000)" fill="#FFFFFF">
                <path d="M626.303333,414.109259 C625.24,414.109259 623.113333,415.172593 622.05,415.172593 L15.95,415.172593 C14.8866667,415.172593 12.76,415.172593 11.6966667,414.109259 L200.97,224.835926 L241.376667,266.305926 C284.973333,310.965926 354.09,310.965926 397.686667,266.305926 L438.093333,224.835926 L626.303333,414.109259 Z M638,393.905926 L638,18.5492593 C638,16.4225926 638,14.2959259 636.936667,13.2325926 C635.873333,15.3592593 448.726667,208.885926 448.726667,208.885926 L638,398.159259 L638,393.905926 Z M0,394.969259 L0,20.6759259 C0,18.5492593 0,16.4225926 1.06333333,15.3592593 C2.12666667,17.4859259 189.273333,211.012593 189.273333,211.012593 L1.06333333,399.222593 C0,398.159259 0,396.032593 0,394.969259 Z M627.366667,0.472592593 L385.99,247.165926 C348.773333,284.382593 289.226667,284.382593 253.073333,247.165926 L11.6966667,0.472592593 C10.6333333,-0.590740741 627.366667,0.472592593 627.366667,0.472592593 Z" id="Shape" fill-rule="nonzero"></path>
            </g>
            <text id="misterEmail" font-family="MyanmarMN-Bold, Myanmar MN" font-size="125" font-weight="bold" fill="#FFFFFF">
                <tspan x="345" y="228">misterEmail</tspan>
            </text>
        </g>
    </g>
</svg>